<?xml version="1.0" encoding="UTF-8"?>
<svg version="1.1" viewBox="0 0 1600 1600" width="1280" height="1280" xmlns="http://www.w3.org/2000/svg">
<path transform="translate(1018,1187)" d="m0 0c0.537 0.438 1.07 0.876 1.63 1.33 14.8 12.1 29 25.1 41.4 39.7 0.789 0.9 1.58 1.8 2.39 2.73 41.3 47.4 68 107 78.6 168 0.174 0.967 0.348 1.93 0.527 2.93 1.69 10.4 1.77 20.6 1.74 31 0.00135 1.9 0.0033 3.8 0.0058 5.71 0.00293 3.96-0.00127 7.92-0.0107 11.9-0.0114 5.05-0.00481 10.1 0.00714 15.1 0.00727 3.92 0.00491 7.84-2.56e-4 11.8-0.00132 1.86 2.61e-4 3.72 0.00496 5.58 0.0493 25-5.36 46-21.3 66-0.53 0.695-1.06 1.39-1.61 2.11-13.9 17.2-37 27.7-58.6 30-1.16 0.126-1.16 0.126-2.34 0.254-9.6 0.949-19.2 0.91-28.8 0.891-2.1 0.00303-4.2 0.00692-6.3 0.0116-5.72 0.0102-11.4 0.00811-17.2 0.00382-6.19-0.00248-12.4 0.00656-18.6 0.014-12.1 0.0127-24.2 0.0146-36.3 0.0122-9.85-0.00184-19.7-6.27e-5 -29.5 0.00422-1.42 6.02e-4 -2.84 0.0012-4.26 0.0018-2.14 9.07e-4 -4.28 0.00182-6.41 0.00273-19.9 0.00842-39.7 0.0128-59.6 0.00859-1.12-2.35e-4 -1.12-2.35e-4 -2.26-4.74e-4 -3.79-8.06e-4 -7.57-0.00165-11.4-0.00251-0.752-1.71e-4 -1.5-3.42e-4 -2.28-5.18e-4 -1.52-3.47e-4 -3.04-6.95e-4 -4.56-0.00105-23.7-0.00536-47.3 0.00257-71 0.021-26.6 0.0207-53.3 0.0314-79.9 0.0274-2.84-3.95e-4 -5.69-7.57e-4 -8.53-0.0011-1.05-1.36e-4 -1.05-1.36e-4 -2.12-2.75e-4 -10.5-0.00116-21.1 0.00545-31.6 0.0161-12 0.0121-24 0.0133-36 0.00121-6.11-0.00587-12.2-0.00704-18.3 5e-3 -5.61 0.0109-11.2 0.00768-16.8-0.00626-2.01-0.00263-4.03-3.33e-4 -6.04 0.00774-10.2 0.0378-20.1-0.331-30.1-1.73-1.27-0.177-1.27-0.177-2.58-0.357-7.91-1.22-14.9-3.8-22.1-7.3-0.994-0.476-1.99-0.951-3.01-1.44-6.67-3.41-12.3-7.73-18-12.6-0.603-0.458-1.21-0.915-1.83-1.39-16.6-12.9-26.7-35.5-29.3-55.9-1.53-13.6-1.22-27.4-1.2-41.1 0.00463-3.16-0.00228-6.33-0.0205-9.49-0.104-18.2 0.148-36.1 3.34-54.1 0.174-1.02 0.174-1.02 0.351-2.06 0.68-3.94 1.47-7.85 2.34-11.8 0.38-1.74 0.38-1.74 0.768-3.51 13-57.8 41-111 80.5-155 0.936-1.07 0.936-1.07 1.89-2.17 9.38-10.6 19.3-21 30.5-29.7 2.8-2.21 5.5-4.52 8.21-6.84 79.8-66.3 189-90 435 0.75z" fill="#000002"/>
<path transform="translate(917 772)" d="m0 0c35.5 31.7 55.8 76.1 58.5 123 0.218 5.48 0.134 10.9-0.148 16.4-0.0558 1.11-0.0558 1.11-0.113 2.24-2.71 45.7-24 89-57.9 120-36 30.9-82.5 47.1-130 43.8-14.9-1.24-28.9-4.05-43-8.79-1.06-0.346-1.06-0.346-2.15-0.699-41.6-13.7-77.7-45.6-97.9-84.3-21.5-43-25.2-92.4-9.98-138 11.2-31 30.5-60.3 56.9-80.3 0.739-0.56 1.48-1.12 2.24-1.7 67.3-50.3 160-47.2 223 8.12z" fill="#000002"/>
<path transform="translate(1377,1158)" d="m0 0c0.658 0.126 1.32 0.251 1.99 0.381 40.8 8.02 76.6 27.2 109 52.6 1.39 1.04 1.39 1.04 2.8 2.11 0.828 0.624 1.66 1.25 2.51 1.89 0.718 0.536 1.44 1.07 2.18 1.62 0.499 0.454 0.998 0.908 1.51 1.38v2c0.591 0.266 1.18 0.533 1.79 0.807 2.26 1.22 3.75 2.48 5.57 4.28 0.618 0.614 1.24 1.23 1.87 1.86 0.647 0.656 1.29 1.31 1.96 1.99 0.669 0.674 1.34 1.35 2.03 2.04 5.31 5.41 10.1 11 14.8 17 0.905 1.07 0.905 1.07 1.83 2.16 7.55 8.99 13.8 19 20.2 28.8 0.612 0.951 0.612 0.951 1.24 1.92 15.3 24.2 30.5 57.4 25.1 86.7-0.924 2.91-2.01 5.58-3.32 8.34-0.401 0.905-0.802 1.81-1.21 2.74-6.7 13.7-18 24.2-32.4 29.5-17.6 5.88-37.7 3.94-56 3.92-3.68-0.00229-7.37 0.00124-11.1 0.00398-7.19 0.00442-14.4 0.0035-21.6 5.87e-4 -5.85-0.00227-11.7-0.00256-17.5-0.00148-1.25 2.3e-4 -1.25 2.3e-4 -2.53 4.64e-4 -1.7 3.2e-4 -3.4 6.44e-4 -5.09 9.73e-4 -15.9 0.00284-31.7-4.14e-4 -47.6-0.0058-13.6-0.00447-27.2-0.00369-40.8 9.19e-4 -15.8 0.00536-31.7 0.00746-47.5 0.00439-1.69-3.19e-4 -3.38-6.33e-4 -5.07-9.43e-4 -0.831-1.54e-4 -1.66-3.09e-4 -2.52-4.68e-4 -5.84-8.62e-4 -11.7 5.9e-4 -17.5 0.00295-7.12 0.00281-14.2 0.00204-21.3-0.00328-3.63-0.00262-7.25-0.00367-10.9-3.51e-4 -3.94 0.00355-7.87-7e-4 -11.8-0.00568-1.14 0.00223-2.28 0.00446-3.45 0.00676-6.44-0.0158-12.7-0.349-19.1-1.13-1.83-5.8-2.78-11.6-3.69-17.6-6.44-40-18.2-79.6-37.3-116-1.15-2.17-2.26-4.36-3.38-6.55-4.46-8.69-9.15-17.1-14.5-25.3-3.69-5.69-3.69-5.69-4.14-9.07 1.61-1.86 3.18-3.37 5-5 1.82-1.87 3.64-3.76 5.45-5.64 1.55-1.36 1.55-1.36 3.55-1.36 0.33-0.99 0.66-1.98 1-3 2.43-2.58 5.27-4.75 8-7 0.747-0.629 0.747-0.629 1.51-1.27 10.9-9.16 22.5-17.1 34.5-24.7 0.616-0.397 1.23-0.793 1.87-1.2 53.6-34 123-41.7 184-29.8z" fill="#000002"/>
<path transform="translate(311,1155)" d="m0 0c0.726 0.0965 1.45 0.193 2.2 0.292 55 7.5 103 33.4 143 70.5 0.576 0.519 1.15 1.04 1.74 1.57 3.86 3.57 6.82 7.32 9.76 11.7-0.451 0.736-0.451 0.736-0.911 1.49-25.7 42.1-44.3 85.3-55.1 134-0.261 1.16-0.521 2.32-0.79 3.52-1.55 7.03-2.85 14-3.83 21.2-0.24 1.71-0.482 3.42-0.727 5.14-0.101 0.733-0.203 1.47-0.307 2.22-0.341 1.95-0.341 1.95-1.34 4.95-32.8 0.129-65.6 0.256-98.3 0.382-3.9 0.015-7.8 0.03-11.7 0.0451-1.16 0.00449-1.16 0.00449-2.35 0.00906-12.4 0.048-24.9 0.0966-37.3 0.145-12.8 0.0504-25.7 0.1-38.5 0.149-7.18 0.0274-14.4 0.0552-21.6 0.0838-16.9 0.067-33.7 0.126-50.6 0.174-3.62 0.0109-7.25 0.0234-10.9 0.0361-5.76 0.0198-11.5 0.0341-17.3 0.0442-2.09 0.00442-4.18 0.0105-6.27 0.0186-9.91 0.0371-19.8-0.0191-29.7-0.491-1.15-0.0505-1.15-0.0505-2.32-0.102-14.4-0.788-27.4-7.68-37.2-18.1-10.2-12-17-26.2-16.4-42.3 3.57-31.9 21.2-64.8 40.3-90 0.893-1.23 1.78-2.46 2.67-3.7 6.61-9.11 13.7-17.5 21.6-25.5 1.68-1.73 3.35-3.48 5.02-5.22 6.79-7.04 14-13.3 21.8-19.1 1.31-0.978 2.62-1.97 3.92-2.96 22.9-17.5 48.6-30.7 76-39.5 0.681-0.221 1.36-0.443 2.06-0.671 36.1-11.6 75.5-14.5 113-9.33z" fill="#000002"/>
<path transform="translate(804,228)" d="m0 0c3.94 3.43 6 6.54 7.96 11.4 0.25 0.61 0.5 1.22 0.757 1.85 2.54 6.26 4.89 12.6 7.21 18.9 1.38 3.79 2.78 7.57 4.18 11.4 0.456 1.23 0.456 1.23 0.921 2.49 6.07 16.4 12.3 32.7 18.5 49 2.17 5.69 4.33 11.4 6.48 17.1 1.2 3.18 2.41 6.37 3.62 9.55 0.547 1.44 1.09 2.89 1.64 4.33 0.738 1.96 1.48 3.92 2.23 5.88 0.408 1.08 0.816 2.16 1.24 3.27 2.68 6.32 2.68 6.32 8.23 9.9 2.41 0.428 2.41 0.428 5.08 0.569 1.6 0.11 1.6 0.11 3.23 0.223 7.44 0.421 14.9 0.777 22.3 1.11 1.82 0.0832 3.64 0.167 5.46 0.25 4.79 0.22 9.58 0.437 14.4 0.654 45 2.04 45 2.04 66.2 3.13 1.62 0.0838 3.23 0.167 4.85 0.249 6.94 0.355 13.9 0.722 20.8 1.25 0.822 0.0612 1.64 0.122 2.49 0.185 2.43 0.421 4.11 1.07 6.2 2.38 2.36 3.79 3.48 6.55 3 11-4.17 6.8-11 11.5-17.3 16.2-4.15 3.11-8.14 6.42-12.1 9.73-5.71 4.74-11.5 9.39-17.3 13.9-4.46 3.48-8.86 7.04-13.2 10.6-4.94 4.03-9.91 8.02-14.9 11.9-6 4.68-11.9 9.5-17.7 14.3-5.22 4.32-10.5 8.53-15.9 12.7-5.92 4.18-5.92 4.18-9.15 10.3-0.339 3.48 0.0459 5.81 0.947 9.17 0.307 1.17 0.614 2.34 0.93 3.54 0.347 1.27 0.695 2.54 1.05 3.85 0.364 1.37 0.728 2.73 1.09 4.1 0.995 3.74 2.01 7.48 3.02 11.2 0.869 3.21 1.73 6.41 2.59 9.62 2.77 10.3 5.58 20.6 8.39 31 0.967 3.55 1.93 7.1 2.9 10.7 0.95 3.5 1.9 6.99 2.85 10.5 0.463 1.7 0.926 3.41 1.39 5.11 2.2 8.11 4.42 16.2 6.77 24.3 0.332 1.15 0.664 2.3 1.01 3.48 0.596 2.05 1.2 4.09 1.82 6.13 1.6 5.49 2.84 10.9 1.93 16.6-2.4 3.5-4.18 4.69-8.12 6.19-9.87-0.478-19.5-9.11-27.6-14.6-3.31-2.24-6.64-4.47-9.96-6.69-0.97-0.651-0.97-0.651-1.96-1.32-4.91-3.3-9.86-6.54-14.8-9.74-4.93-3.16-9.82-6.37-14.7-9.62-8.21-5.5-16.5-10.9-24.8-16.3-4.14-2.69-8.27-5.4-12.4-8.12-1.03-0.675-2.05-1.35-3.11-2.05-1.96-1.29-3.91-2.58-5.87-3.87-2.55-1.68-5.12-3.31-7.71-4.92-0.722-0.456-1.44-0.912-2.19-1.38-3.49-2.01-5.17-2.69-9.26-2.22-4.44 2-8.34 4.44-12.4 7.16-1.79 1.19-3.58 2.37-5.37 3.56-0.946 0.631-1.89 1.26-2.87 1.91-5.11 3.4-10.3 6.74-15.4 10.1-2.22 1.45-4.44 2.9-6.65 4.35-0.562 0.368-1.12 0.735-1.7 1.11-6.57 4.3-13.1 8.6-19.7 12.9-12.5 8.22-25.1 16.4-37.6 24.6-2.7 1.76-5.4 3.54-8.09 5.31-1.53 1-3.06 2-4.59 3-0.669 0.443-1.34 0.886-2.03 1.34-8.07 5.26-8.07 5.26-13.2 5.16-3.98-1.25-5.58-2.52-8-5.94-0.667-7.74 1.14-14.4 3.24-21.8 0.358-1.3 0.714-2.6 1.07-3.89 0.788-2.87 1.58-5.74 2.38-8.61 1.4-5.02 2.77-10 4.14-15.1 0.498-1.83 0.996-3.65 1.49-5.48 0.251-0.922 0.503-1.84 0.762-2.79 1.3-4.76 2.6-9.51 3.9-14.3 0.393-1.44 0.393-1.44 0.795-2.9 1.34-4.89 2.68-9.78 4.02-14.7 1.33-4.84 2.65-9.68 3.98-14.5 0.494-1.81 0.99-3.61 1.49-5.42 1.38-5 2.73-10 4.05-15 0.477-1.8 0.962-3.6 1.45-5.4 0.774-2.85 1.52-5.71 2.26-8.57 0.364-1.31 0.364-1.31 0.735-2.65 1.06-4.21 1.49-6.27-0.03-10.4-1.69-2.46-3.27-4.28-5.55-6.21-0.799-0.681-1.6-1.36-2.42-2.06-4.27-3.48-8.61-6.88-13-10.3-3.98-3.11-7.9-6.29-11.8-9.49-4.96-4.05-9.95-8.06-15-12-6.51-5.08-12.9-10.3-19.3-15.5-3.76-3.07-7.55-6.1-11.4-9.12-2.55-2.04-5.07-4.12-7.59-6.19-3.63-2.98-7.3-5.9-11-8.78-17.7-13.7-17.7-13.7-19.7-17.9-0.599-5.27 0.746-7.88 4-12 3.25-1.62 6.85-1.41 10.4-1.61 0.904-0.0543 1.81-0.109 2.74-0.165 3.09-0.183 6.18-0.359 9.26-0.535 1.07-0.0624 2.15-0.125 3.25-0.189 26.5-1.54 52.9-2.77 79.4-4.01 3.54-0.166 7.08-0.333 10.6-0.5 2.44-0.114 4.88-0.227 7.32-0.339 4.31-0.201 8.63-0.419 12.9-0.647 0.678-0.0338 1.36-0.0677 2.06-0.103 1.93-0.0993 3.87-0.213 5.8-0.327 1.64-0.0927 1.64-0.0927 3.31-0.187 2.79-0.378 4.51-0.813 6.83-2.38 3.65-6.29 6.06-13.1 8.61-19.9 0.437-1.15 0.873-2.31 1.32-3.5 1.18-3.12 2.35-6.24 3.53-9.36 1.23-3.27 2.46-6.53 3.7-9.79 2.24-5.94 4.49-11.9 6.72-17.8 2.33-6.19 4.67-12.4 7-18.6 0.373-0.988 0.746-1.98 1.13-2.99 1.78-4.7 3.55-9.4 5.33-14.1 0.334-0.883 0.668-1.77 1.01-2.68 0.649-1.72 1.3-3.43 1.95-5.15 1.71-4.51 3.41-9.03 5.09-13.6 1.13-3.04 2.28-6.07 3.42-9.1 0.379-1.03 0.757-2.05 1.15-3.11 3.14-8.28 6.75-15.9 17-13.4z" fill="#000002"/>
<path transform="translate(250,228)" d="m0 0c5.17 3.22 6.62 6.97 8.63 12.4 0.334 0.87 0.668 1.74 1.01 2.64 1.13 2.97 2.25 5.95 3.36 8.92 0.84 2.21 1.68 4.42 2.52 6.63 2.58 6.77 5.13 13.6 7.67 20.3 1.26 3.35 2.52 6.7 3.78 10.1 4.31 11.4 8.62 22.9 12.9 34.4 1.55 4.13 3.1 8.25 4.65 12.4 1.05 2.79 2.09 5.58 3.14 8.37 2.92 7.78 5.87 15.5 9.48 23 0.834 1.92 0.834 1.92 0.834 3.92 11.4 4.74 25.9 3.42 38 3.97 3.4 0.154 6.81 0.311 10.2 0.468 9.67 0.447 19.3 0.889 29 1.33 47.2 2.15 47.2 2.15 63.8 3.2 1.09 0.0604 2.17 0.121 3.29 0.183 4.92 0.343 8.68 0.606 12.6 3.84 1.63 2.25 2 4.02 2.56 6.75-1.69 9.78-14.1 16.7-21.4 22.5-2.78 2.21-5.53 4.46-8.28 6.7-6.14 5.02-12.3 9.97-18.6 14.9-7.87 6.17-15.6 12.5-23.3 18.8-6.81 5.57-13.6 11.1-20.6 16.4-5.64 4.3-11.1 8.81-16.4 13.4-1.86 1.59-3.76 3.14-5.69 4.64-2.26 1.62-2.26 1.62-3.19 3.8-0.34 6.1 0.553 11.2 2.18 17 0.237 0.886 0.474 1.77 0.718 2.69 0.797 2.97 1.61 5.93 2.42 8.9 0.571 2.12 1.14 4.23 1.71 6.35 1.44 5.34 2.89 10.7 4.34 16 1.99 7.32 3.97 14.6 5.95 22 3.33 12.3 6.67 24.7 10 37 0.372 1.37 0.743 2.73 1.11 4.1 2.15 7.94 4.37 15.8 6.72 23.7 2.26 8.77 2.26 8.77 1.19 12.4-3.81 6.04-3.81 6.04-7.36 6.86-6.38-0.307-10.5-2.71-15.8-6.12-1.2-0.753-1.2-0.753-2.43-1.52-4.8-3.03-9.49-6.17-14.1-9.49-3.56-2.49-7.2-4.83-10.9-7.18-5.47-3.52-10.9-7.07-16.3-10.7-5.3-3.55-10.6-7.04-16-10.5-5.36-3.46-10.7-6.95-16-10.5-8.11-5.43-16.3-10.7-24.5-16-0.638-0.411-1.28-0.822-1.93-1.25-1.77-1.13-3.54-2.26-5.32-3.38-0.995-0.632-1.99-1.26-3.02-1.91-3.68-1.97-3.68-1.97-7.73-2.46-7.71 3.09-14.5 8.11-21.4 12.7-1.29 0.852-2.58 1.7-3.87 2.55-2.64 1.74-5.28 3.48-7.92 5.23-5.66 3.74-11.3 7.45-17 11.2-2.13 1.39-4.25 2.78-6.38 4.17-3.86 2.52-7.72 5.04-11.6 7.57-2.85 1.86-5.7 3.72-8.54 5.58-1.1 0.716-2.19 1.43-3.32 2.17-5.66 3.7-11.3 7.43-16.9 11.2-5.69 3.82-11.5 7.52-17.2 11.2-0.815 0.517-1.63 1.03-2.47 1.57-0.766 0.483-1.53 0.966-2.32 1.46-0.68 0.429-1.36 0.857-2.06 1.3-5.33 3.18-5.33 3.18-9.4 3.11-4.35-1.15-5.98-2.26-8.56-5.94-0.618-6.91 1.04-12.9 2.9-19.5 0.309-1.13 0.618-2.26 0.937-3.42 1.02-3.73 2.06-7.45 3.1-11.2 0.72-2.61 1.44-5.22 2.15-7.83 1.13-4.1 2.25-8.2 3.38-12.3 3.94-14.3 7.81-28.6 11.7-42.9 0.913-3.38 1.83-6.77 2.74-10.2 1.78-6.59 3.55-13.2 5.31-19.8 0.727-2.72 1.47-5.43 2.21-8.14 0.382-1.43 0.763-2.86 1.14-4.29 0.313-1.16 0.626-2.31 0.948-3.5 0.643-3.91 0.593-7.42-1.63-10.8-5.06-4.75-10.5-9-16-13.2-4.01-3.11-7.95-6.31-11.9-9.52-4.94-4.03-9.91-8.02-14.9-11.9-6-4.68-11.9-9.51-17.7-14.4-4.97-4.1-9.99-8.11-15.1-12.1-5.24-4.09-10.4-8.28-15.5-12.5-3.74-3.05-7.49-6.08-11.3-9.08-1.48-1.19-2.96-2.37-4.44-3.56-0.69-0.553-1.38-1.11-2.09-1.68-0.63-0.519-1.26-1.04-1.91-1.57-0.536-0.438-1.07-0.877-1.62-1.33-1.64-1.69-2.5-3.24-3.38-5.42 0.208-4.88 1.68-7.48 5-11 3.2-1.6 6.72-1.41 10.2-1.61 0.884-0.0543 1.77-0.109 2.68-0.165 3.02-0.183 6.05-0.359 9.07-0.535 1.58-0.0936 1.58-0.0936 3.19-0.189 26.1-1.54 52.1-2.78 78.2-4.01 3.5-0.166 6.99-0.333 10.5-0.5 2.4-0.114 4.81-0.227 7.21-0.339 3.62-0.17 7.23-0.354 10.8-0.543 2.11-0.105 4.22-0.19 6.33-0.274 1.35-0.0647 2.69-0.13 4.04-0.196 1.17-0.0502 2.35-0.1 3.56-0.152 3.41-0.521 5.38-1.46 8.15-3.48 1.22-1.67 1.22-1.67 1.92-3.61 0.298-0.722 0.596-1.44 0.903-2.19 0.305-0.79 0.611-1.58 0.925-2.39 0.34-0.844 0.68-1.69 1.03-2.56 1.1-2.74 2.16-5.5 3.22-8.26 0.502-1.31 0.502-1.31 1.01-2.65 1.82-4.77 3.6-9.55 5.38-14.3 3.12-8.42 6.3-16.8 9.48-25.2 0.607-1.6 1.21-3.21 1.82-4.81 1.2-3.17 2.4-6.33 3.6-9.5 1.08-2.86 2.17-5.72 3.25-8.58 2.71-7.16 5.43-14.3 8.15-21.5 1.37-3.6 2.72-7.21 4.07-10.8 0.892-2.36 1.78-4.72 2.68-7.08 0.602-1.62 0.602-1.62 1.22-3.27 6.61-17.4 6.61-17.4 17.3-15.3z" fill="#000002"/>
<path transform="translate(1354 227)" d="m0 0c3.39 0.889 4.9 2.93 7.13 5.56 3.83 7.1 6.38 15 9.14 22.5 4.15 11.3 8.44 22.6 12.7 33.8 1.68 4.4 3.35 8.81 5.03 13.2 0.422 1.11 0.845 2.22 1.28 3.36 2.91 7.65 5.79 15.3 8.66 23 0.771 2.06 1.54 4.11 2.31 6.17 1.1 2.93 2.2 5.86 3.29 8.79 4.48 16.1 4.48 16.1 13.8 28.2 9.81 3.37 21.9 2.37 32.3 2.83 1.82 0.0832 3.64 0.167 5.46 0.25 4.8 0.22 9.59 0.437 14.4 0.654 44.9 2.03 44.9 2.03 66.2 3.13 1.62 0.0838 3.23 0.167 4.85 0.249 6.94 0.355 13.9 0.722 20.8 1.25 0.822 0.0612 1.64 0.122 2.49 0.185 2.43 0.421 4.11 1.08 6.2 2.38 2.05 3.11 2.98 5.2 3.06 8.94-2.88 8.29-10.6 13-17.3 18.2-3.61 2.78-7.09 5.69-10.5 8.66-4.13 3.53-8.3 6.94-12.6 10.2-3.57 2.78-7.07 5.65-10.6 8.51-5.61 4.57-11.3 9.08-17 13.5-7.76 6.02-15.4 12.1-22.9 18.5-3.37 2.79-6.81 5.48-10.3 8.16-6.11 4.78-6.11 4.78-12.1 9.69-0.697 0.574-1.39 1.15-2.11 1.74-2.15 2.67-2.27 4.54-2.57 7.95 0.462 2.62 1 5.04 1.71 7.59 0.199 0.755 0.398 1.51 0.604 2.29 0.675 2.54 1.37 5.08 2.06 7.62 0.49 1.83 0.978 3.66 1.47 5.48 1.7 6.34 3.43 12.7 5.16 19 0.683 2.51 1.37 5.01 2.05 7.52 8.58 31.5 8.58 31.5 17.3 63 0.872 3.09 1.74 6.19 2.6 9.28 0.55 1.95 1.11 3.91 1.68 5.86 1.76 6.31 3.02 11.8 2.34 18.4-1.71 2.96-3.95 4.5-7 6-9.74 0.735-20.4-9.13-28.2-14.2-1.02-0.664-2.03-1.33-3.08-2.01-5.95-3.9-11.9-7.82-17.8-11.8-6.96-4.65-14-9.21-21-13.8-6.67-4.35-13.3-8.72-20-13.1-1.56-1.03-3.12-2.05-4.67-3.08-2.29-1.51-4.58-3.02-6.87-4.53-4.81-3.17-9.62-6.33-14.5-9.46-0.623-0.407-1.25-0.814-1.89-1.23-1.75-1.14-3.51-2.27-5.28-3.39-0.986-0.632-1.97-1.26-2.99-1.92-3.1-1.6-5.36-2.31-8.84-2.46-2.54 0.953-2.54 0.953-4.84 2.59-0.865 0.561-1.73 1.12-2.62 1.7-0.84 0.565-1.68 1.13-2.54 1.71-1.41 0.899-2.82 1.8-4.23 2.69-1.47 0.955-2.93 1.91-4.4 2.87-0.824 0.537-1.65 1.07-2.5 1.63-9.07 5.92-18.1 11.9-27.2 17.8-8.2 5.39-16.4 10.8-24.7 16.1-5.79 3.74-11.6 7.5-17.3 11.3-0.967 0.63-1.93 1.26-2.93 1.91-4.85 3.16-9.69 6.32-14.5 9.49-1.8 1.18-3.61 2.36-5.41 3.54-0.831 0.545-1.66 1.09-2.52 1.65-0.771 0.503-1.54 1.01-2.34 1.52-0.671 0.439-1.34 0.877-2.03 1.33-3.42 2.1-5.25 3.19-9.36 3.12-4.39-1.15-5.99-2.2-8.56-5.94-0.797-5.87 0.313-11.4 1.91-17.1 0.204-0.756 0.407-1.51 0.617-2.29 0.673-2.49 1.36-4.97 2.05-7.45 0.482-1.77 0.962-3.53 1.44-5.3 1.28-4.7 2.57-9.4 3.87-14.1 1.33-4.84 2.65-9.69 3.97-14.5 4.47-16.4 8.98-32.7 13.5-49 0.31-1.11 0.62-2.23 0.939-3.38 1.37-4.91 2.74-9.82 4.13-14.7 0.471-1.68 0.941-3.35 1.41-5.03 0.206-0.717 0.412-1.43 0.625-2.17 2.53-8.38 2.53-8.38 1.31-16.7-5.9-7.29-14-12.8-21.3-18.5-3.89-3.03-7.7-6.15-11.5-9.28-9.15-7.52-18.3-15-27.7-22.3-5.17-4.04-10.2-8.18-15.3-12.3-4.26-3.47-8.56-6.89-12.9-10.3-5.48-4.28-10.9-8.65-16.2-13.1-1.1-0.9-1.1-0.9-2.22-1.82-0.685-0.565-1.37-1.13-2.08-1.71-0.911-0.751-0.911-0.751-1.84-1.52-4.52-3.91-4.52-3.91-5.62-7.7-0.0825-4.95 1.07-6.77 3.94-10.8 3.76-1.25 7.42-1.38 11.3-1.61 0.883-0.0543 1.77-0.109 2.68-0.165 3.01-0.183 6.03-0.359 9.04-0.535 1.57-0.0936 1.57-0.0936 3.18-0.189 26-1.54 52.1-2.78 78.1-4.01 3.5-0.166 6.99-0.333 10.5-0.5 2.4-0.114 4.81-0.227 7.21-0.339 3.62-0.17 7.23-0.354 10.8-0.543 2.11-0.105 4.22-0.19 6.33-0.274 1.35-0.0647 2.69-0.13 4.04-0.196 1.17-0.0502 2.35-0.1 3.56-0.152 3.42-0.522 5.38-1.44 8.15-3.48 1.35-2.04 1.35-2.04 2.18-4.46 0.363-0.927 0.726-1.85 1.1-2.81 0.381-1.02 0.762-2.05 1.15-3.1 0.419-1.09 0.838-2.17 1.27-3.29 1.19-3.09 2.36-6.18 3.52-9.28 1.08-2.88 2.18-5.76 3.28-8.63 3-7.88 5.98-15.8 8.95-23.7 3.1-8.24 6.22-16.5 9.35-24.7 2.3-6.05 4.58-12.1 6.85-18.2 1.24-3.34 2.49-6.67 3.74-10 0.603-1.61 1.2-3.23 1.8-4.84 10.7-29 10.7-29 20.7-29.6z" fill="#000002"/>
<path transform="translate(361 886)" d="m0 0c25.7 22.4 41.5 51.8 45.5 85.7 0.0865 0.711 0.173 1.42 0.262 2.15 3.84 33.9-7.45 67.6-28.3 94.1-1.31 1.59-2.62 3.17-3.94 4.75-0.552 0.687-1.1 1.37-1.67 2.08-4.79 5.78-10.4 10.4-16.3 14.9-1.12 0.878-1.12 0.878-2.26 1.77-12.5 9.27-26.8 16.1-41.7 20.2-1.01 0.294-2.02 0.588-3.07 0.891-33.3 9.05-69.1 3.81-99-13.1-33.1-20.2-53.8-50.4-62.9-87.8-0.268-1.09-0.536-2.18-0.812-3.31-6.18-31.6 1.75-67 19.4-93.8 3.53-5.19 7.37-10.1 11.4-14.9 0.512-0.634 1.02-1.27 1.55-1.92 3.74-4.55 7.9-8.36 12.4-12.1 0.96-0.786 1.92-1.57 2.91-2.38 48.2-38.7 120-37.4 167 2.7z" fill="#000002"/>
<path transform="translate(1405,883)" d="m0 0c3.43 2.9 6.74 5.91 10 9 0.847 0.794 1.69 1.59 2.57 2.41 13.8 13.4 24.5 30.9 30.5 49.2 0.257 0.78 0.514 1.56 0.778 2.36 11 34.1 7.13 69.9-8.71 102-10.1 19.1-25.8 36.7-44.1 48.1-0.834 0.522-0.834 0.522-1.69 1.05-30.2 18.6-65.7 24.3-100 16.9-26.4-6.31-51.6-21.1-69-42-0.961-1.13-0.961-1.13-1.94-2.28-21.4-25.8-32.7-59.8-29.8-93.2 2.97-31.1 15-57.3 35.8-80.5 0.768-0.865 1.54-1.73 2.33-2.62 14.9-15.9 35.7-27.8 56.7-33.4 0.682-0.195 1.36-0.389 2.07-0.59 39.1-10.8 83.4-1.86 115 23.6z" fill="#000002"/>
<path transform="translate(1060 152)" d="m0 0c5.92 3.57 10.2 8.94 12.4 15.5 1.68 8.56 0.266 14.5-4.42 21.9-2.85 3.86-6.35 6.99-9.9 10.2-0.721 0.668-1.44 1.34-2.19 2.03-4.16 3.84-8.4 7.58-12.7 11.3-2.6 2.28-5.12 4.63-7.65 6.99-3.85 3.57-7.78 6.97-11.9 10.2-4.36 3.51-8.3 7.25-12.2 11.3-2.57 2.57-5.26 4.94-8.02 7.31-2.35 2.03-4.66 4.1-6.96 6.18-0.842 0.758-1.68 1.52-2.55 2.3-1.71 1.55-3.42 3.1-5.12 4.66-18.7 17.1-18.7 17.1-30.5 17.7-8.42-0.943-14.4-4.44-19.7-11-4.09-6.08-4.92-12.2-3.95-19.3 2.68-11.3 14.7-20.9 23.6-27.6 1.49-0.495 1.49-0.495 3-1v-2c1.4-1.41 1.4-1.41 3.38-3.06 3.19-2.71 6.33-5.45 9.44-8.25 0.839-0.757 1.68-1.51 2.54-2.29 2.76-2.5 5.52-5.01 8.27-7.52 3.06-2.78 6.12-5.54 9.25-8.25 4.15-3.6 8.17-7.34 12.2-11.1 4.93-4.57 9.92-9.08 14.9-13.6 0.686-0.626 1.37-1.25 2.08-1.9 11-9.96 21.7-17 36.5-10.6z" fill="#000002"/>
<path transform="translate(563 151)" d="m0 0c5.2 3.04 9.31 7.35 13.6 11.5 1.3 1.16 2.61 2.3 3.94 3.44 3.95 3.43 7.8 6.98 11.6 10.5 2.73 2.51 5.48 4.99 8.29 7.42 4.43 3.84 8.7 7.86 13 11.9 3.65 3.4 7.33 6.72 11.1 9.98 2.59 2.28 5.12 4.63 7.66 6.97 4.45 4.11 9 8.08 13.6 12 17.5 15 17.5 15 19.2 25.5 0.434 7.9-1.87 14.2-6.98 20.2-5.28 5-11.3 6.8-18.4 7.59-11.2-0.642-18-7.59-25.6-15-1.78-1.72-3.62-3.35-5.5-4.96-3.37-2.92-6.66-5.92-9.94-8.94-3.3-3.04-6.61-6.06-10-9-3.93-3.41-7.75-6.93-11.6-10.5-2.75-2.53-5.53-5.04-8.36-7.48-4.18-3.62-8.23-7.4-12.3-11.2-2.91-2.7-5.84-5.37-8.84-7.97-1.31-1.15-2.63-2.29-3.94-3.44-0.994-0.865-1.99-1.73-3.01-2.62-1.08-0.959-2.16-1.92-3.24-2.88-0.508-0.439-1.02-0.878-1.54-1.33-6.14-5.52-8.73-11.2-9.52-19.4 0.592-7.22 3.4-13.5 8.31-18.8 9.6-6.4 17.8-8.16 28.4-3.53z" fill="#000002"/>
<path transform="translate(814,22)" d="m0 0c6.01 4.97 9.8 10.8 10.6 18.6 0.66 7.9 0.59 15.8 0.579 23.7 6.76e-4 1.67 0.00165 3.34 0.0029 5.01 0.00147 3.49-6.43e-4 6.98-0.00534 10.5-0.00567 4.42-0.00243 8.84 0.00357 13.3 0.00366 3.45 0.00244 6.89-1.28e-4 10.3-6.57e-4 1.63 1.14e-4 3.25 0.00248 4.88 0.00948 8.36-0.101 16.7-0.535 25.1-0.0487 1.05-0.0487 1.05-0.0983 2.13-0.412 6.98-2.32 10.9-6.82 16.3-6.61 5.53-12 7.55-20.7 7.25-6.46-1.05-11.5-3.09-16-8-3.46-5.8-6.11-11.3-6.15-18.1-0.00716-0.816-0.0143-1.63-0.0217-2.47-0.00269-0.886-0.00538-1.77-0.00815-2.69-0.00657-0.94-0.0131-1.88-0.0199-2.85-0.0197-3.11-0.0314-6.22-0.0414-9.34-0.00611-1.6-0.00611-1.6-0.0124-3.23-0.0209-5.64-0.0352-11.3-0.0445-16.9-0.011-5.81-0.0454-11.6-0.0852-17.4-0.0262-4.48-0.0345-8.96-0.0381-13.4-0.00486-2.14-0.0164-4.28-0.035-6.42-0.0245-3.01-0.0234-6.01-0.0165-9.02-0.0128-0.874-0.0256-1.75-0.0388-2.65 0.0635-7.61 1.97-14.4 6.95-20.3 0.846-0.701 1.69-1.4 2.56-2.12 1.21-1.08 1.21-1.08 2.44-2.19 8.77-6.2 18.6-4.67 27.6 0.188z" fill="#000002"/>
</svg>
